<?xml version="1.0" standalone="no"?>
<!DOCTYPE svg PUBLIC "-//W3C//DTD SVG 20010904//EN"
 "http://www.w3.org/TR/2001/REC-SVG-20010904/DTD/svg10.dtd">
<svg version="1.0" xmlns="http://www.w3.org/2000/svg"
 width="400.000000pt" height="400.000000pt" viewBox="0 0 400.000000 400.000000"
 preserveAspectRatio="xMidYMid meet">

<g transform="translate(0.000000,400.000000) scale(0.100000,-0.100000)"
fill="#000000" stroke="none">
<path d="M0 2000 l0 -2000 2000 0 2000 0 0 2000 0 2000 -2000 0 -2000 0 0
-2000z m2210 1260 c319 -42 544 -193 673 -454 31 -64 92 -245 85 -251 -2 -2
-95 -22 -208 -45 -113 -23 -213 -44 -222 -46 -11 -3 -18 0 -18 8 0 8 -18 52
-40 97 -102 212 -314 312 -569 270 -95 -15 -168 -44 -244 -96 -191 -130 -286
-366 -287 -713 0 -317 73 -551 218 -698 222 -224 562 -229 882 -12 l60 41 0
159 0 160 -255 0 -255 0 0 205 0 205 485 0 485 0 -2 -492 -3 -492 -82 -66
c-135 -109 -360 -217 -557 -266 -140 -36 -378 -44 -527 -19 -102 17 -238 59
-314 98 -292 148 -487 431 -566 824 -30 151 -37 426 -15 579 45 304 150 535
326 714 163 165 350 261 570 289 91 12 291 12 380 1z"/>
</g>
</svg>
